<svg xmlns="http://www.w3.org/2000/svg" viewBox="19.1 15 112.4 46.1"><style type="text/css">  
	.st0{fill:#FFFFFF;}
</style><path d="M129.4 56.9c4.4 0.9 0.8-35.9 0.1-38.3 -2-6.6-26.7-2.1-32.2-1.7 -12.7 1-25.2-1-37.6-0.4 -6.2 0.3-34.9-1.8-37.5 2 -5 7.2-2.7 25.8-1.3 35.1 -4 0.8 2.3 4.2 3.1 4.9 6.3 2.2 16.4-0.2 23 0.4 15.4 1.5 31.8-2.2 47.3-1 4.5 1.1 9.6 1 14.2 1.2C112 64.7 128.2 56.7 129.4 56.9 129.3 56.9 129.9 57 129.4 56.9z"/><path class="st0" d="M45.2 39.4c-0.1-2.5-0.5-5.1-0.5-7.6 0-2.1 0.4-4.2-0.3-6.2 0-0.2 0.1-0.4 0.1-0.7 0.2-1-3.1-0.5-3.6 0.4 -0.3 0.3-0.5 0.6-0.4 0.9 0 0.1 0.1 0.2 0.1 0.2 -0.6 3-1.5 6-2.5 8.9 -0.4 1.1-0.8 2.2-1.2 3.4 -0.6-1-1.1-2.1-1.6-3.2 -1.3-3.3-2.5-6.6-4.1-9.7 0.2-1.5-3-1.3-3.7 0 -0.8 1.6-0.7 3.2-0.4 4.9 0.3 1.9 0.3 3.8 0.4 5.8 0 3.8 0.3 7.5 0.4 11.3 -0.3 0.4-0.4 0.8-0.1 1.3 0.2 0.2 0.3 0.4 0.5 0.5 0.9 0.7 3.3 0.1 3.3-1.2 0-3.9-0.3-7.8-0.4-11.7 0-0.4 0-0.8 0-1.1 0.1 0.1 0.1 0.3 0.2 0.4 0.6 1.5 1.2 3 2.1 4.4 0.8 1.4 1.2 2.9 1.7 4.4 -0.2 0.2-0.3 0.4-0.2 0.7 0 0.2 0.1 0.3 0.2 0.3 0.6 0.5 1.7 0.3 2.4 0 0.3-0.1 0.5-0.2 0.8-0.4 0.3-0.2 0.8-0.6 0.7-1.1 0-0.1-0.1-0.2-0.1-0.3 0.4-1.2 0.7-2.5 0.9-3.7 0.3-1.4 0.7-2.6 1.2-3.9 0 0.6 0.1 1.2 0.1 1.8 0.2 2.4 0 4.8 0 7.2 0 0.8 0.1 1.5 0.2 2.3 0.1 0.3 0.3 1.7 0.3 1.8 -0.6 0.5-0.4 1.2 0.4 1.4 0.9 0.2 2-0.1 2.6-0.7 1.1-1 0.6-2.7 0.3-4C44.7 44.2 45.3 41.7 45.2 39.4z"/><path class="st0" d="M53.1 40.1c-0.1-1.9-0.7-3.7-0.7-5.6 0-2.2 0.2-4.4-0.1-6.5 -0.1-0.7-3.8 0.1-3.7 1 0.3 2 0.2 4 0.2 6 0 1.9 0.4 3.7 0.7 5.6 0.3 2-0.1 3.9 0.1 5.9 0.1 0.9 0.7 2.6 0.1 3.4 -0.4 0.5 1.4 0.3 1.5 0.3 0.7-0.1 1.7-0.4 2.2-1 0.6-0.8 0.2-2.3 0.1-3.2C53 44.1 53.2 42 53.1 40.1z"/><path class="st0" d="M68.6 36.9c-2-2.6-5.6-0.7-8.1-1.5 -1.3-0.4-1.3-2.2-1.3-3.2 0-1.4-0.1-2.6-0.3-3.9 -0.1-1 0-2 0.7-2.8 0.1-0.1 0.8-0.3 0.8-0.3 0.3-0.1 0.6-0.1 1-0.1 1.5-0.1 4.4 0.2 3.8 2.4 -0.3 1 3.4 0.4 3.7-0.6 1.2-4.4-6.9-3.5-9.2-2.9 -2.1 0.6-4.4 1.8-4.5 4.2 -0.1 1.2 0.3 2.3 0.3 3.4 0.1 1.3-0.2 2.6 0.3 3.9 1 2.8 5.2 1.5 7.4 1.7 3.6 0.3 2.6 5.2 2.6 7.5 0 1.2 1.1 3.3 0.2 4.3 -0.6 0.6-1.9 0.7-2.6 0.7 -0.8 0.1-2.1 0.3-2.6-0.4 -0.9-1.3 0.1-3.6-0.1-5.1 -0.1-0.9-3.9-0.1-3.7 1 0.3 2.5-1.3 5.8 2.3 6.3 2.3 0.3 4.9-0.2 7.1-0.9 1.1-0.4 2.2-0.9 3.1-1.7 1-0.9 0.7-2.2 0.4-3.4C69.1 42.5 70.4 39.3 68.6 36.9z"/><path class="st0" d="M85.1 36.7c-0.1-3.6-0.7-7.1-0.7-10.7 0-1.9-3.8-1.2-3.8 0.3 0 3.4 0.5 6.8 0.6 10.2 0 0.1 0 0.1 0 0.2 -1.8 0-3.7 0.2-5.6 0.2 0.2-4.4-0.6-8.8-0.4-13.1 0-0.6-3.7-0.1-3.7 1 -0.2 4.2 0.6 8.5 0.4 12.7 -0.1 2-0.2 4-0.2 6.1 0 1 0.2 2.1 0.3 3.1 0.1 0.9 0.5 2.2 0.2 3.1 -0.2 0.7 3.4 0.3 3.7-0.7 0.5-1.7-0.2-3.8-0.4-5.5 -0.2-1.6 0-3.3 0.1-5 1.9-0.1 3.9-0.3 5.8 0 0.1 1.3 0.2 2.6 0.3 3.9 0.1 1.1 0.2 2.2 0.2 3.3 0 1 0.1 2.4-0.2 3.3 -0.7 2 3 1.8 3.5 0.3 0.7-1.8 0.5-4 0.4-5.8C85.5 41.4 85.1 39 85.1 36.7z"/><path class="st0" d="M101.1 41c-0.9-2.6-2.3-4.9-3.4-7.4 1-1.9 1.9-3.7 2.8-5.6 0.8-1.7 1.4-3.6 2.9-4.8 0.5-0.4 0.5-0.8-0.2-0.9 -0.8-0.1-2 0.2-2.6 0.7 -1.4 1.1-2.3 2.4-3 4.1 -0.9 1.9-1.8 3.9-2.8 5.8 -0.1 0.1-0.1 0.3-0.2 0.4 -0.5 0.3-0.7 0.7-0.6 1.2 -0.8 1.5-1.5 3-2.4 4.4 -0.3-5.2-0.9-10.5-1.1-15.8 0-1.2-3.8-0.5-3.7 1 0.2 6.5 1.2 13 1.2 19.5 0 0 0 0 0 0 -0.3 0.3-0.2 0.5 0.1 0.6 0 1.7-0.1 3.3-0.2 5 -0.4 0.7 0.4 1.1 1 1.1 0 0 0.1 0 0.1 0 0.7 0 2.5-0.3 2.6-1.3 0.2-2 0.2-4 0.2-6 1.5-1.6 2.7-3.4 3.8-5.3 0.7 1.4 1.4 2.8 1.9 4.3 0.8 2.6 2.2 5 3 7.6 0.5 1.7 4.2 0.7 3.7-1C103.3 46 102 43.6 101.1 41z"/><path class="st0" d="M123.4 36.6c-0.2-0.8-1.3-0.8-2.2-0.7 0-0.3 0-0.6 0-1 -0.1-2.5-0.2-5.1-0.4-7.6 -0.2-2.3-1.5-3.2-3.8-3.1 -2.3 0.1-5 0.5-7.1 1.3 -2.5 1-3.9 2.8-4.3 5.4 -0.5 2.9 0.2 5.9 0.4 8.8 0.1 3.3 0.1 6.7 0.1 10 0 0.5 3.7 0 3.7-1 0-2.6 0-5.3 0-7.9 0-0.8 0-1.5-0.1-2.3 1.3-0.6 3.5 0 4.8 0.1 1.1 0.1 2.1-0.2 3.1-0.3 0 2.2 0.1 4.4 0.2 6.6 0 1.1 0.5 3.4-0.3 4.3 -0.4 0.5 1.4 0.3 1.5 0.3 0.8-0.1 1.7-0.4 2.2-1 0.9-1.1 0.4-3.6 0.4-4.9 -0.1-1.8-0.1-3.6-0.1-5.4C122.4 38.1 123.6 37.4 123.4 36.6zM109.6 36.4c-0.1-1.2-0.2-2.4-0.3-3.6 -0.2-2.2 0.1-5.3 2.2-6.6 0.6-0.4 1.6-0.3 2.2-0.4 0.9-0.2 1.9-0.4 2.7 0.2 1.1 0.8 0.9 3.5 0.9 4.6 0 1.9 0.2 3.8 0.3 5.7 -0.5 0.1-1.1 0.1-1.6 0.1C113.8 36.3 111.6 36 109.6 36.4z"/><path class="st0" d="M49.9 25.4c0.5 0 1-0.2 1.4-0.5 0.1-0.1 0.2-0.1 0.2-0.2 0.5-0.3 0.9-0.8 0.7-1.3 -0.5-1-0.4-2.1-0.4-3.2 0-0.9-0.9-1.2-1.7-1.1 -0.7 0.1-2.1 0.6-2.1 1.4 0 0.9-0.1 1.9 0.1 2.8 0 0.1-0.1 0.2-0.1 0.3 -0.1 0.2 0 0.4 0.1 0.6 0 0 0 0.1 0 0.1 0 0.1 0 0.2 0 0.3 0.1 0.2 0.2 0.4 0.4 0.5C49 25.4 49.5 25.4 49.9 25.4z"/></svg>